{"title":"SPONGEBOB SQUAREPANTS-WHO BOB-WHAT PANTS- IN H.264 BY WINKER","uid":5336889,"size":839018831,"categoryP":"video","categoryS":"tv_shows","magnet":"?xt=urn:btih:5516783a84fc7a728e2120ed86a1f1a41b2c0d0a&amp;dn=SPONGEBOB+SQUAREPANTS-WHO+BOB-WHAT+PANTS-+IN+H.264+BY+WINKER&amp;tr=udp%3A%2F%2Ftracker.openbittorrent.com%3A80&amp;tr=udp%3A%2F%2Fopen.demonii.com%3A1337&amp;tr=udp%3A%2F%2Ftracker.coppersurfer.tk%3A6969&amp;tr=udp%3A%2F%2Fexodus.desync.com%3A6969","seeders":6,"leechers":0,"uploader":"alanwatson","files":-1,"time":1265349162,"description":"When Spongebob\ntries to spend some QT with his pals, he ends up being a real pain in the Square Pants and they tell him to get lost. So he does. But will he ever come back, or is Spongebob lost forever? Will Bikini Bottom survive without him?\n\nFormat : MPEG-4\nFormat profile : Base Media / Version 2\nCodec ID : mp42\nFile size : 800 MiB\nDuration : 1h 21mn\nOverall bit rate : 1 371 Kbps\nEncoded date : UTC 2010-02-02 14:11:12\nTagged date : UTC 2010-02-02 17:02:49\nWriting application : HandBrake 0.9.3 2008112300\n\nVideo\nID : 1\nFormat : AVC\nFormat/Info : Advanced Video Codec\nFormat profile : &lt;a class=&quot;__cf_email__&quot; href=&quot;/cdn-cgi/l/email-protection&quot; data-cfemail=&quot;713c10181f313d455f41&quot;&gt;[email&amp;#160;protected]&lt;/a&gt;&lt;script cf-hash='f9e31' type=&quot;text/javascript&quot;&gt;\n/* &lt;![CDATA[ */!function(){try{var t=&quot;currentScript&quot;in document?document.currentScript:function(){for(var t=document.getElementsByTagName(&quot;script&quot;),e=t.length;e--;)if(t[e].getAttribute(&quot;cf-hash&quot;))return t[e]}();if(t&amp;&amp;t.previousSibling){var e,r,n,i,c=t.previousSibling,a=c.getAttribute(&quot;data-cfemail&quot;);if(a){for(e=&quot;&quot;,r=parseInt(a.substr(0,2),16),n=2;a.length-n;n+=2)i=parseInt(a.substr(n,2),16)^r,e+=String.fromCharCode(i);e=document.createTextNode(e),c.parentNode.replaceChild(e,c)}}}catch(u){}}();/* ]]&gt; */&lt;/script&gt;\nFormat settings, CABAC : Yes\nFormat settings, ReFrames : 3 frames\nCodec ID : avc1\nCodec ID/Info : Advanced Video Coding\nDuration : 1h 21mn\nBit rate mode : Variable\nBit rate : 1 207 Kbps\nWidth : 698 pixels\nHeight : 572 pixels\nDisplay aspect ratio : 4:3\nFrame rate mode : Variable\nFrame rate : 25.000 fps\nMinimum frame rate : 12.500 fps\nMaximum frame rate : 36.613 fps\nResolution : 24 bits\nColorimetry : 4:2:0\nScan type : Progressive\nBits/(Pixel*Frame) : 0.121\nStream size : 704 MiB (88%)\nWriting library : x264 core 65\n\n\nAudio\nID : 2\nFormat : AAC\nFormat/Info : Advanced Audio Codec\nFormat version : Version 4\nFormat profile : LC\nFormat settings, SBR : No\nCodec ID : 40\nDuration : 1h 21mn\nBit rate mode : Variable\nBit rate : 160 Kbps\nMaximum bit rate : 254 Kbps\nChannel(s) : 2 channels\nChannel positions : L R\nSampling rate : 48.0 KHz\nResolution : 16 bits\nStream size : 93.4 MiB (12%)\nLanguage : English\nEncoded date : UTC 2010-02-02 14:11:12\nTagged date : UTC 2010-02-02 17:02:45","torrent":{"xt":"urn:btih:5516783a84fc7a728e2120ed86a1f1a41b2c0d0a","amp;dn":"SPONGEBOB+SQUAREPANTS-WHO+BOB-WHAT+PANTS-+IN+H.264+BY+WINKER","amp;tr":["udp%3A%2F%2Ftracker.openbittorrent.com%3A80","udp%3A%2F%2Fopen.demonii.com%3A1337","udp%3A%2F%2Ftracker.coppersurfer.tk%3A6969","udp%3A%2F%2Fexodus.desync.com%3A6969"],"infoHash":"5516783a84fc7a728e2120ed86a1f1a41b2c0d0a","infoHashBuffer":{"type":"Buffer","data":[85,22,120,58,132,252,122,114,142,33,32,237,134,161,241,164,27,44,13,10]},"announce":[],"urlList":[]}}